<?xml version="1.0" standalone="no"?>
<!DOCTYPE svg PUBLIC "-//W3C//DTD SVG 20010904//EN"
 "http://www.w3.org/TR/2001/REC-SVG-20010904/DTD/svg10.dtd">
<svg version="1.0" xmlns="http://www.w3.org/2000/svg"
 width="512.000000pt" height="512.000000pt" viewBox="0 0 512.000000 512.000000"
 preserveAspectRatio="xMidYMid meet">
<metadata>
Created by potrace 1.11, written by Peter Selinger 2001-2013
</metadata>
<g transform="translate(0.000000,512.000000) scale(0.100000,-0.100000)"
fill="#000000" stroke="none">
<path d="M786 4353 l-786 -766 0 -1564 c0 -1736 -3 -1643 66 -1760 76 -127
217 -228 353 -253 74 -14 3289 -14 3362 0 172 33 328 167 392 338 20 53 21 80
25 413 l3 356 126 12 c403 39 646 188 740 452 35 99 44 289 18 403 -48 220
-201 378 -439 456 l-69 23 69 36 c130 68 240 195 283 324 67 199 40 427 -69
586 -106 157 -328 270 -586 298 l-69 8 -5 495 c-5 465 -7 498 -26 551 -47 131
-135 235 -251 296 -120 65 -78 63 -1270 63 l-1081 0 -786 -767z m989 -624
c152 -18 308 -63 431 -123 109 -54 240 -144 298 -205 l29 -30 -78 -86 c-43
-47 -80 -85 -82 -85 -3 0 -32 22 -64 49 -132 110 -280 184 -452 223 -114 27
-389 31 -502 9 -438 -87 -739 -364 -858 -791 -18 -64 -21 -102 -21 -270 0
-169 3 -205 21 -272 55 -195 130 -331 255 -464 207 -217 456 -326 774 -341
254 -12 499 46 677 160 l57 37 0 440 0 440 130 0 130 0 0 -498 0 -499 -77 -57
c-150 -112 -368 -203 -588 -244 -142 -26 -457 -23 -595 7 -284 61 -490 170
-681 360 -191 191 -298 389 -356 661 -28 133 -25 421 5 559 71 316 234 573
483 760 179 135 448 238 689 264 79 9 291 6 375 -4z m2403 -15 c21 -6 22 -11
22 -113 l0 -106 -497 0 -498 0 -3 -472 -2 -473 484 0 c266 0 491 3 500 6 14 5
16 56 16 465 l0 459 22 0 c43 0 154 -33 224 -66 92 -43 182 -136 214 -221 28
-73 37 -201 20 -274 -28 -120 -113 -230 -220 -284 -48 -24 -160 -59 -222 -70
l-38 -6 0 -118 0 -118 78 -7 c253 -22 435 -118 505 -267 52 -111 59 -266 18
-384 -41 -118 -130 -204 -265 -256 -74 -28 -227 -59 -298 -59 l-38 0 0 485 0
485 -22 5 c-13 3 -237 4 -498 3 l-475 -3 0 -490 0 -490 498 -3 497 -2 0 -110
0 -110 -635 0 -635 0 0 1300 0 1300 613 0 c336 0 622 -3 635 -6z"/>
</g>
</svg>
